{"title":"Tharkappu 2016 Tamil Movies TCRip XviD Audio Cleaned New ~ ☻rDX☻","uid":13129981,"size":739560145,"categoryP":"video","categoryS":"movies","magnet":"?xt=urn:btih:ad0858d1fcd1c181f661384f327f3f767742b8b2&amp;dn=Tharkappu+2016+Tamil+Movies+TCRip+XviD+Audio+Cleaned+New+%7E+%E2%98%BBrDX%E2%98%BB&amp;tr=udp%3A%2F%2Ftracker.leechers-paradise.org%3A6969&amp;tr=udp%3A%2F%2Fzer0day.ch%3A1337&amp;tr=udp%3A%2F%2Fopen.demonii.com%3A1337&amp;tr=udp%3A%2F%2Ftracker.coppersurfer.tk%3A6969&amp;tr=udp%3A%2F%2Fexodus.desync.com%3A6969","seeders":3,"leechers":1,"uploader":"basicssom","files":2,"time":1451831263,"description":"----------------------------------------------------------------\r\nTharkappu 2016 Tamil Movies TCRip XviD AAC Audio Cleaned New Source with Sample ~ ☻rDX☻\r\n\r\nSCREEN SHOTS &amp; POSTER:\r\n  \nhttp://doctorhosts.com/2016/1/Tharkappu/11.html  \nhttp://doctorhosts.com/2016/1/Tharkappu/1.html  \nhttp://doctorhosts.com/2016/1/Tharkappu/2.html  \nhttp://doctorhosts.com/2016/1/Tharkappu/3.html  \nhttp://doctorhosts.com/2016/1/Tharkappu/4.html  \nhttp://doctorhosts.com/2016/1/Tharkappu/5.html  \nhttp://doctorhosts.com/2016/1/Tharkappu/6.html  \nhttp://doctorhosts.com/2016/1/Tharkappu/7.html  \nhttp://doctorhosts.com/2016/1/Tharkappu/8.html  \nhttp://doctorhosts.com/2016/1/Tharkappu/9.html  \nhttp://doctorhosts.com/2016/1/Tharkappu/10.html\r\n\r\nFormat                                   : Matroska\r\nFormat version                           : Version 4 / Version 2\r\nFile size                                : 697 MiB\r\nDuration                                 : 2h 1mn\r\nOverall bit rate                         : 800 Kbps\r\nMovie name                               : Tharkappu 2016 Tamil Movies TCRip XviD AAC Audio Cleaned New Source ~ rDX ~\r\n\r\nVideo\r\nID                                       : 1\r\nFormat                                   : MPEG-4 Visual\r\nFormat profile                           : Advanced   \r\nFormat settings, BVOP                    : Yes\r\nFormat settings, QPel                    : No\r\nFormat settings, GMC                     : No warppoints\r\nFormat settings, Matrix                  : Default (H.263)\r\nCodec ID                                 : V_MS/VFW/FOURCC / XVID\r\nCodec ID/Hint                            : XviD\r\nDuration                                 : 2h 1mn\r\nBit rate                                 : 688 Kbps\r\nWidth                                    : 608 pixels\r\nHeight                                   : 256 pixels\r\nDisplay aspect ratio                     : 2.40:1\r\nFrame rate mode                          : Constant\r\nFrame rate                               : 25.000 fps\r\nColor space                              : YUV\r\nChroma subsampling                       : 4:2:0\r\nBit depth                                : 8 bits\r\nScan type                                : Progressive\r\nCompression mode                         : Lossy\r\nBits/(Pixel*Frame)                       : 0.177\r\nStream size                              : 600 MiB (86%)\r\nTitle                                    : ~ rDX ~\r\nWriting library                          : XviD 67\r\nDefault                                  : Yes\r\nForced                                   : No\r\n\r\nAudio\r\nID                                       : 2\r\nFormat                                   : MPEG Audio\r\nFormat version                           : Version 1\r\nFormat profile                           : Layer 3\r\nMode                                     : Joint stereo\r\nMode extension                           : MS Stereo\r\nCodec ID                                 : A_MPEG/L3\r\nCodec ID/Hint                            : MP3\r\nDuration                                 : 2h 1mn\r\nBit rate mode                            : Constant\r\nBit rate                                 : 96.0 Kbps\r\nChannel(s)                               : 2 channels\r\nSampling rate                            : 44.1 KHz\r\nCompression mode                         : Lossy\r\nStream size                              : 83.7 MiB (12%)\r\nTitle                                    : ~ rDX ~\r\nDefault                                  : Yes\r\nForced                                   : No\r\n\r\nIMDB                                     \r\nna","torrent":{"xt":"urn:btih:ad0858d1fcd1c181f661384f327f3f767742b8b2","amp;dn":"Tharkappu+2016+Tamil+Movies+TCRip+XviD+Audio+Cleaned+New+%7E+%E2%98%BBrDX%E2%98%BB","amp;tr":["udp%3A%2F%2Ftracker.leechers-paradise.org%3A6969","udp%3A%2F%2Fzer0day.ch%3A1337","udp%3A%2F%2Fopen.demonii.com%3A1337","udp%3A%2F%2Ftracker.coppersurfer.tk%3A6969","udp%3A%2F%2Fexodus.desync.com%3A6969"],"infoHash":"ad0858d1fcd1c181f661384f327f3f767742b8b2","infoHashBuffer":{"type":"Buffer","data":[173,8,88,209,252,209,193,129,246,97,56,79,50,127,63,118,119,66,184,178]},"announce":[],"urlList":[]}}